<?xml version="1.0" encoding="utf-8"?>
<!-- Generator: Adobe Illustrator 16.0.0, SVG Export Plug-In . SVG Version: 6.00 Build 0)  -->
<!DOCTYPE svg PUBLIC "-//W3C//DTD SVG 1.1//EN" "http://www.w3.org/Graphics/SVG/1.1/DTD/svg11.dtd">
<svg version="1.1" id="Layer_1" xmlns="http://www.w3.org/2000/svg" xmlns:xlink="http://www.w3.org/1999/xlink" x="0px" y="0px"
	 width="190.378px" height="94.977px" viewBox="0 0 190.378 94.977" enable-background="new 0 0 190.378 94.977"
	 xml:space="preserve">
<g>
	<linearGradient id="SVGID_1_" gradientUnits="userSpaceOnUse" x1="55.249" y1="-4.7671" x2="55.249" y2="145.2362">
		<stop  offset="0" style="stop-color:#33749B"/>
		<stop  offset="0.1974" style="stop-color:#306F96"/>
		<stop  offset="0.4" style="stop-color:#366999"/>
		<stop  offset="0.6508" style="stop-color:#33749B"/>
		<stop  offset="1" style="stop-color:#094565"/>
	</linearGradient>
	<path fill="url(#SVGID_1_)" d="M56.323,49.288c-2.226,0-4.503,0.304-6.769,0.902c-2.27,0.602-4.387,1.488-6.292,2.634
		c-2.137,1.281-3.175,2.547-3.175,3.87c0,0.634,0.233,1.201,0.674,1.641c0.894,0.892,2.051,0.94,3.641-0.144
		c0.678-0.46,1.126-0.774,1.333-0.929c1.096-0.796,2.615-1.521,4.517-2.156c1.902-0.633,4.106-0.953,6.551-0.953
		c2.977-0.001,5.17,0.778,6.519,2.312c1.373,1.566,2.069,4.16,2.069,7.707v9.31c0,2.397-0.517,4.572-1.537,6.463
		c-1.013,1.878-2.426,3.366-4.203,4.427c-0.109,0.066-0.222,0.126-0.335,0.187l-0.228,0.121c-2.249,1.255-4.927,1.565-7.406,0.863
		c-2.503-0.71-4.58-2.354-5.847-4.628c-2.02-3.621-0.543-9.658,2.82-11.534c1.505-0.838,3.116-1.155,4.281-0.828
		c1.427,0.405,1.929,0.645,3.214,1.903c1.299,1.275,2.238,3.418,0.612,5.26c-0.837,0.943-2.647,0.764-3.408-0.29
		c-0.715-0.989-2.504-1.069-3.396-0.101c-0.355,0.386-0.757,1.097-0.656,2.29c0.154,1.822,2.308,3.773,5.268,3.773
		c1.458,0,2.929-0.496,4.256-1.435c3.16-2.233,3.688-6.595,1.314-10.854c-1.323-2.372-3.49-4.087-6.101-4.827
		c-2.583-0.733-5.387-0.408-7.73,0.899c-5.686,3.171-8.005,12.131-4.682,18.09c1.893,3.396,4.996,5.852,8.736,6.914
		c1.311,0.372,2.657,0.562,4,0.562c2.456,0,4.901-0.64,7.086-1.859c0.042-0.024,0.083-0.053,0.095-0.065l0.09-0.055
		c1.466-0.896,2.722-2.04,3.756-3.417v2.7c0,0.735,0.231,1.359,0.69,1.858c0.469,0.506,1.113,0.773,1.861,0.773
		c0.949,0,1.516-0.401,1.826-0.739c0.429-0.472,0.647-1.107,0.647-1.893v-23.71C70.413,54.35,65.672,49.288,56.323,49.288z"/>
	<linearGradient id="SVGID_2_" gradientUnits="userSpaceOnUse" x1="85.7666" y1="-4.7681" x2="85.7666" y2="145.2371">
		<stop  offset="0" style="stop-color:#33749B"/>
		<stop  offset="0.1974" style="stop-color:#306F96"/>
		<stop  offset="0.4" style="stop-color:#366999"/>
		<stop  offset="0.6508" style="stop-color:#33749B"/>
		<stop  offset="1" style="stop-color:#094565"/>
	</linearGradient>
	<path fill="url(#SVGID_2_)" d="M95.715,50.108c0.433,0.325,0.649,0.867,0.649,1.625c0,1.354-0.812,2.111-2.436,2.273l-2.437,0.244
		c-3.846,0.379-6.701,1.76-8.568,4.142c-1.868,2.383-2.802,5.171-2.802,8.365v21.034c0,0.812-0.218,1.435-0.649,1.868
		c-0.435,0.433-1.029,0.649-1.787,0.649c-0.759,0-1.368-0.217-1.827-0.649c-0.461-0.434-0.69-1.057-0.69-1.868V52.221
		c0-0.812,0.229-1.435,0.69-1.868c0.459-0.433,1.068-0.649,1.827-0.649c0.703,0,1.271,0.217,1.705,0.649
		c0.434,0.434,0.65,1.029,0.65,1.787v5.278c2.219-4.655,6.334-7.2,12.344-7.634l1.138-0.081
		C94.55,49.649,95.281,49.784,95.715,50.108z"/>
	<linearGradient id="SVGID_3_" gradientUnits="userSpaceOnUse" x1="117.7642" y1="-4.7671" x2="117.7642" y2="145.2362">
		<stop  offset="0" style="stop-color:#33749B"/>
		<stop  offset="0.1974" style="stop-color:#306F96"/>
		<stop  offset="0.4" style="stop-color:#366999"/>
		<stop  offset="0.6508" style="stop-color:#33749B"/>
		<stop  offset="1" style="stop-color:#094565"/>
	</linearGradient>
	<path fill="url(#SVGID_3_)" d="M133.113,50.394c0.459,0.46,0.69,1.069,0.69,1.827v35.571c0,0.759-0.231,1.368-0.69,1.827
		c-0.461,0.459-1.07,0.69-1.827,0.69c-0.704,0-1.273-0.231-1.706-0.69c-0.434-0.459-0.649-1.068-0.649-1.827v-4.954
		c-1.246,2.491-3.019,4.386-5.319,5.685c-2.302,1.3-4.913,1.949-7.837,1.949c-4.657,0-8.162-1.285-10.518-3.857
		c-2.354-2.571-3.532-6.375-3.532-11.41V52.221c0-0.758,0.229-1.367,0.689-1.827s1.068-0.69,1.828-0.69
		c0.758,0,1.353,0.23,1.787,0.69c0.432,0.46,0.648,1.069,0.648,1.827v22.658c0,3.845,0.771,6.674,2.314,8.486
		c1.544,1.815,3.966,2.721,7.27,2.721c3.789,0,6.834-1.204,9.136-3.613c2.301-2.409,3.452-5.617,3.452-9.624V52.221
		c0-0.758,0.216-1.367,0.649-1.827c0.433-0.46,1.028-0.69,1.787-0.69C132.042,49.703,132.652,49.934,133.113,50.394z"/>
	<linearGradient id="SVGID_4_" gradientUnits="userSpaceOnUse" x1="155.5923" y1="-4.7676" x2="155.5923" y2="145.2357">
		<stop  offset="0" style="stop-color:#33749B"/>
		<stop  offset="0.1974" style="stop-color:#306F96"/>
		<stop  offset="0.4" style="stop-color:#366999"/>
		<stop  offset="0.6508" style="stop-color:#33749B"/>
		<stop  offset="1" style="stop-color:#094565"/>
	</linearGradient>
	<path fill="url(#SVGID_4_)" d="M190.26,14.149c-0.436-3.585-2.027-6.845-4.543-9.36c-0.458-0.458-0.948-0.893-1.468-1.3
		c-4.017-3.148-9.44-4.234-14.878-2.979c-5.53,1.276-10.408,4.859-13.779,10.006c-3.37-5.147-8.248-8.73-13.778-10.006
		c-5.438-1.256-10.861-0.17-14.878,2.979c-0.52,0.407-1.01,0.841-1.468,1.3c-2.515,2.515-4.107,5.775-4.543,9.36
		c-0.514,4.24,0.654,8.427,3.288,11.788c0.442,0.563,0.926,1.083,1.441,1.56c0.026,0.03,0.045,0.063,0.075,0.093l27.771,27.77
		c0.147,0.147,0.316,0.258,0.492,0.349c0.073,0.112,0.157,0.219,0.256,0.317c0.766,0.765,2.008,0.765,2.772-0.001l28.435-28.435
		c0.029-0.03,0.049-0.063,0.075-0.093c0.516-0.477,0.999-0.997,1.44-1.56C189.606,22.576,190.773,18.389,190.26,14.149z
		 M155.593,51.908l-20.924-20.923c1.315-0.005,2.609-0.205,3.848-0.592l15.288,15.288c0.485,0.485,1.162,0.661,1.788,0.531
		c0.625,0.13,1.302-0.046,1.786-0.531l15.29-15.288c1.238,0.387,2.531,0.586,3.847,0.592L155.593,51.908z M155.593,26.265
		c0.62,0.124,1.29-0.053,1.771-0.535l6.337-6.338c0.143,1.196,0.462,2.388,0.921,3.52l-9.029,9.031l-9.03-9.031
		c0.458-1.131,0.777-2.323,0.92-3.52l6.339,6.338C154.303,26.211,154.972,26.389,155.593,26.265z M154.123,36.015
		c0.404,0.404,0.94,0.588,1.471,0.565c0.529,0.023,1.065-0.162,1.47-0.565l9.61-9.611c0.542,0.668,1.142,1.27,1.789,1.776
		c0.165,0.129,0.332,0.253,0.502,0.373l-13.372,13.372L142.22,28.553c0.171-0.12,0.338-0.244,0.502-0.373
		c0.648-0.507,1.248-1.108,1.79-1.776L154.123,36.015z M183.886,23.519c-1.526,1.946-3.72,3.183-6.177,3.481
		c-2.456,0.298-4.882-0.379-6.829-1.906c-1.839-1.439-3.178-4.115-3.33-6.656c-0.077-1.281,0.112-3.09,1.458-4.437
		c2.275-2.274,5.747-3.666,8.668-0.745c2.381,2.38,1.468,4.579,0.553,5.504c-0.592,0.596-1.466,0.882-2.127,0.695
		c-0.172-0.05-0.698-0.197-0.913-1.125c-0.243-1.056-1.296-1.712-2.351-1.469c-1.055,0.245-1.711,1.296-1.468,2.352
		c0.466,2.022,1.8,3.484,3.66,4.014c2.035,0.578,4.384-0.093,5.983-1.709c2.589-2.613,3.225-7.242-0.567-11.033
		c-3.963-3.965-9.808-3.658-14.21,0.745c-0.236,0.235-0.455,0.484-0.662,0.744l-9.982,9.983l-9.981-9.983
		c-0.206-0.259-0.427-0.508-0.662-0.744c-4.403-4.403-10.247-4.71-14.211-0.745c-3.792,3.792-3.155,8.42-0.566,11.033
		c1.6,1.616,3.949,2.287,5.982,1.709c1.861-0.53,3.194-1.992,3.661-4.014c0.243-1.056-0.414-2.107-1.469-2.352
		c-1.054-0.243-2.106,0.413-2.351,1.469c-0.215,0.928-0.74,1.075-0.913,1.125c-0.659,0.188-1.534-0.099-2.126-0.695
		c-0.915-0.925-1.828-3.124,0.553-5.504c2.921-2.921,6.392-1.529,8.668,0.745c1.347,1.346,1.535,3.155,1.458,4.437
		c-0.151,2.541-1.49,5.217-3.33,6.656c-1.948,1.527-4.374,2.204-6.829,1.906c-2.457-0.298-4.651-1.536-6.177-3.481
		c-1.988-2.539-2.87-5.698-2.481-8.898c0.388-3.201,1.998-6.059,4.535-8.047c3.081-2.414,7.3-3.232,11.579-2.245
		c5.406,1.249,10.099,5.241,12.873,10.953c0.32,0.66,0.962,1.049,1.645,1.092c0.048,0.004,0.096,0.006,0.144,0.006
		c0.048,0,0.095-0.002,0.143-0.006c0.683-0.042,1.323-0.433,1.644-1.092c2.775-5.712,7.467-9.704,12.874-10.953
		c4.279-0.987,8.498-0.168,11.579,2.245c2.537,1.988,4.147,4.846,4.536,8.047C186.756,17.821,185.875,20.98,183.886,23.519z"/>
	<linearGradient id="SVGID_5_" gradientUnits="userSpaceOnUse" x1="26.2363" y1="-4.7681" x2="26.2363" y2="145.2364">
		<stop  offset="0" style="stop-color:#33749B"/>
		<stop  offset="0.1974" style="stop-color:#306F96"/>
		<stop  offset="0.4" style="stop-color:#366999"/>
		<stop  offset="0.6508" style="stop-color:#33749B"/>
		<stop  offset="1" style="stop-color:#094565"/>
	</linearGradient>
	<path fill="url(#SVGID_5_)" d="M51.868,30.907c-0.417-0.389-0.926-0.578-1.559-0.578H2.163c-0.694,0-1.219,0.174-1.605,0.533
		C0.183,31.212,0,31.716,0,32.399c0,0.685,0.182,1.188,0.558,1.538c0.385,0.358,0.91,0.533,1.605,0.533h21.726v57.974
		c0,0.764,0.207,1.366,0.631,1.842c0.412,0.465,0.973,0.69,1.717,0.69c0.746,0,1.325-0.229,1.77-0.699
		c0.451-0.478,0.669-1.077,0.669-1.833V34.47h21.633c0.632,0,1.142-0.189,1.56-0.579c0.406-0.382,0.604-0.871,0.604-1.492
		S52.275,31.29,51.868,30.907z"/>
</g>
</svg>
